<?xml version="1.0" encoding="UTF-8"?>
<!DOCTYPE svg PUBLIC "-//W3C//DTD SVG 1.1//EN" "http://www.w3.org/Graphics/SVG/1.1/DTD/svg11.dtd">
<svg xmlns="http://www.w3.org/2000/svg" xmlns:xlink="http://www.w3.org/1999/xlink" version="1.1" width="271px" height="371px" viewBox="-0.5 -0.5 271 371" content="">
	<defs />
	<g>
		<path d="M 90 100 L 210 100 L 210 222.63" fill="none" stroke="#000000" stroke-miterlimit="10" pointer-events="none" />
		<path d="M 210 227.88 L 206.5 220.88 L 210 222.63 L 213.5 220.88 Z" fill="#000000" stroke="#000000" stroke-miterlimit="10" pointer-events="none" />
		<path d="M 50 60 L 90 100 L 50 140 L 10 100 Z" fill="#ffffff" stroke="#000000" stroke-miterlimit="10" pointer-events="none" />
		<g transform="translate(31.5,72.5)">
			<switch>

				<text x="20" y="35" fill="#000000" text-anchor="middle" font-size="18px">
					條件
				</text>
			</switch>
		</g>
		<rect x="0" y="220" width="100" height="40" fill="#ffffff" stroke="#000000" pointer-events="none" />
		<g transform="translate(13.5,230.5)">
			<switch>
				<text x="36" y="19" fill="#000000" text-anchor="middle" font-size="18px">
					程式代碼
				</text>
			</switch>
		</g>
		<path d="M 50 150 L 50 140" fill="none" stroke="#000000" stroke-miterlimit="10" pointer-events="none" />
		<path d="M 50 180 L 50 213.63" fill="none" stroke="#000000" stroke-miterlimit="10" pointer-events="none" />
		<path d="M 50 218.88 L 46.5 211.88 L 50 213.63 L 53.5 211.88 Z" fill="#000000" stroke="#000000" stroke-miterlimit="10" pointer-events="none" />
		<g transform="translate(7.5,155.5)">
			<switch>
				<text x="40" y="19" fill="#000000" text-anchor="middle" font-size="18px">
					true
				</text>
			</switch>
		</g>
		<g transform="translate(135.5,232.5)">
			<switch>

				<text x="75" y="19" fill="#000000" text-anchor="middle" font-size="18px">
					false
				</text>
			</switch>
		</g>
		<path d="M 50 260 L 50 333.63" fill="none" stroke="#000000" stroke-miterlimit="10" pointer-events="none" />
		<path d="M 50 338.88 L 46.5 331.88 L 50 333.63 L 53.5 331.88 Z" fill="#000000" stroke="#000000" stroke-miterlimit="10" pointer-events="none" />
		<path d="M 210 260 L 210 310 L 56.37 310" fill="none" stroke="#000000" stroke-miterlimit="10" pointer-events="none" />
		<path d="M 51.12 310 L 58.12 306.5 L 56.37 310 L 58.12 313.5 Z" fill="#000000" stroke="#000000" stroke-miterlimit="10" pointer-events="none" />
		<path d="M 50 20 L 50 53.63" fill="none" stroke="#000000" stroke-miterlimit="10" pointer-events="none" />
		<path d="M 50 58.88 L 46.5 51.88 L 50 53.63 L 53.5 51.88 Z" fill="#000000" stroke="#000000" stroke-miterlimit="10" pointer-events="none" />
		<ellipse cx="50" cy="10" rx="10" ry="10" fill="#000000" stroke="#000000" pointer-events="none" />
		<ellipse cx="50" cy="350" rx="10" ry="10" fill="none" stroke="#000000" stroke-width="2" pointer-events="none" />
		<ellipse cx="50" cy="350" rx="6" ry="6" fill="none" stroke="#000000" stroke-width="2" pointer-events="none" />
		<ellipse cx="50" cy="350" rx="5" ry="5" fill="#000000" stroke="#000000" stroke-width="2" pointer-events="none" />
	</g>
</svg>
