<svg xmlns="http://www.w3.org/2000/svg" viewBox="0 0 649.69 818.34"><defs><style>.cls-1{fill:#ffc979;}.cls-2{fill:#607b8c;}.cls-3{fill:#6d8b9e;}.cls-4{fill:#dbba7f;}.cls-5{fill:#d8c190;}.cls-10,.cls-6,.cls-8,.cls-9{fill:none;stroke-miterlimit:10;}.cls-10,.cls-6{stroke:#ac7735;stroke-linecap:round;}.cls-6{stroke-width:0.9px;}.cls-7{fill:#e5c381;}.cls-8,.cls-9{stroke:#451600;}.cls-8{stroke-width:7.65px;}.cls-9{stroke-width:9px;}.cls-10{stroke-width:4.5px;}.cls-11{fill:#1f170c;}.cls-12{fill:#714b3d;}.cls-13{fill:#133248;}.cls-14{fill:#2b404d;}.cls-15{fill:#fff;}.cls-16{fill:#2e2920;}</style></defs><g id="圖層_2" data-name="圖層 2"><circle class="cls-1" cx="50.74" cy="385.05" r="50.74"/><rect class="cls-1" x="262.87" y="437.86" width="48.64" height="9.57" transform="translate(-381.97 164.77) rotate(-26.74)"/><rect class="cls-1" x="250.39" y="285.69" width="27.77" height="85.21" rx="13.88" transform="translate(-307.63 94.73) rotate(-19.41)"/><path class="cls-2" d="M578.31,336.93s-13.81,66-9.22,91.63a132.66,132.66,0,0,0,17.62,45.19s18.76-3.45,43.28-49.4,41.36-104.56,41.36-104.56,8.81-8,16.47,0,47.87,47.49,117.95,49.41,54,102.25,54,102.25l3.45,358.66H458.41V653.37s-5.36-10-12.25,1.15-36,32.55-49.41,32.17-31-11.49-54.76-49.79-87.32-142.47-87.32-142.47-13.41-20.68,6.89-33.7,49.4-28,49.4-28,11.49-14.17,23.75,7.28,48.64,72,48.64,72,11.1,19.91,18.38-2.3,34.47-129.83,47.49-142.47S525.85,343.44,578.31,336.93Z" transform="translate(-213.53 -11.78)"/><path class="cls-3" d="M680.28,316.48s32.94,130.21,30.26,160.08S593.35,590.69,577.26,590.69,508.33,473.5,514.45,443.63s52.85-98.81,52.85-98.81Z" transform="translate(-213.53 -11.78)"/><path class="cls-4" d="M671.09,310.38c.72-1.94,1.42-3.87,2.12-5.81,1.11-3,3.13-7.18,3.13-10.46.15-.71,1.82-9.23-.08-8.13s-4.65,1.33-6.72,1.76c-3.88.82-7.83,1.38-11.73,2.06q-11.73,2-23.48,4-23.48,3.9-47,7.45L575.53,303q0,7.25,0,14.48v7.81c0,1.3,0,2.61,0,3.91s.16,2.34.22,3.55c0,.61,0,1.22,0,1.83q-.25,7.76-.48,15.51L574.82,365l-.54,17.81-.59,19.75-.63,20.73L572.44,444c0,23.7-1.27,47.39-2.15,71.07q6,0,11.92,0c1.42,0,3.46.42,4.48-.47s1.8-4.31,2.38-5.7q4.59-11,9.21-22,9.21-22,18.41-44,3.12-7.49,6.23-15c3.57-8.6,7.1-17.22,10.52-25.88,11.38-28.78,24.45-56.84,35.43-85.77C669.61,314.33,670.36,312.36,671.09,310.38Z" transform="translate(-213.53 -11.78)"/><ellipse class="cls-5" cx="497.58" cy="214.47" rx="32.46" ry="45.86"/><path class="cls-6" d="M709.76,233.63c.59-.17,12.08-3.24,19,3.9a15.52,15.52,0,0,1,3.71,6.61" transform="translate(-213.53 -11.78)"/><ellipse class="cls-7" cx="402.07" cy="163.5" rx="105.51" ry="149.23"/><rect class="cls-8" x="305.19" y="157.67" width="45.9" height="51.02" rx="0.51"/><rect class="cls-9" x="391.05" y="148.67" width="80.43" height="60.03" rx="0.51"/><line class="cls-9" x1="355.14" y1="180.1" x2="391.05" y2="180.1"/><path class="cls-10" d="M572.28,252.19c1.71,2,13.18,14.78,32.17,14.93,17.81.15,29.07-10.93,31-12.92" transform="translate(-213.53 -11.78)"/><ellipse cx="341.68" cy="189.72" rx="6.03" ry="9.62"/><ellipse cx="435.03" cy="187.05" rx="13.5" ry="10.77"/><path class="cls-11" d="M587.76,350.58" transform="translate(-213.53 -11.78)"/><polygon class="cls-12" points="362.07 327.38 384.58 380.41 357.98 479.62 362.07 327.38"/><polyline class="cls-12" points="450.66 316.52 385.99 374.7 382.12 482.06"/><path class="cls-13" d="M599.48,393.79l16.73-21a1.18,1.18,0,0,0-.75-1.9l-26.54-4a1.17,1.17,0,0,0-1.27,1.59l9.81,25A1.18,1.18,0,0,0,599.48,393.79Z" transform="translate(-213.53 -11.78)"/><path class="cls-13" d="M600.74,382.87l-6.49,141.3a.76.76,0,0,1-.87.72l-28.9-4.35a.75.75,0,0,1-.62-.94l35.38-137A.76.76,0,0,1,600.74,382.87Z" transform="translate(-213.53 -11.78)"/><circle class="cls-14" cx="359.33" cy="629.91" r="16.09"/><circle class="cls-14" cx="359.97" cy="720.1" r="16.09"/><circle class="cls-14" cx="359.97" cy="802.25" r="16.09"/><ellipse class="cls-15" cx="548.52" cy="687.64" rx="5.17" ry="54.57"/><path class="cls-16" d="M606.67,161.53c-.39.73-.64,1.36-.09,1.88,2.08-3.11,1.69-10.18,2-14.11q.6-8.3.47-16.63c-.13-9-1-18.4-5.39-26.31-10.77-19.37-44.8-23.8-63.28-14.43-10.68,5.42-17.77,16.21-21.61,27.55-3.74,11-5,22.74-6.39,34.22a97.92,97.92,0,0,0-2.14-30.85c-.21-.95-4.07-11.33-3.67-11.78-14.17,15.7-12.63,40.6-12.64,40.6-5.08-26.54-2.63-63.58,18.39-83.49C501.39,64,488,79.9,481.47,86.61c.89-.91,1.23-5,1.75-6.31a47.06,47.06,0,0,1,3.1-6.29,106.61,106.61,0,0,1,7.57-11.58A117.32,117.32,0,0,1,513.49,42a129.69,129.69,0,0,1,49.87-25.18c19.85-5.09,40.6-5.72,61.06-4.56,51.9,2.94,106.7,20.94,128,72.72.57,1.37,1.1,2.75,1.61,4.14,8.64,23.68,9.25,49.89,3.9,74.53a135.24,135.24,0,0,1-18.12,44.81c-2.83-7.12-8.37-12.1-14.94-15.79-15.82-8.9-36.63-10.85-51.74-.78,2-4.92,1-10.7-1.68-15.3s-6.77-8.19-11.07-11.31c-7.33-5.32-15.59-9.59-24.5-11.22s-18.53-.44-26.17,4.42A9.26,9.26,0,0,0,606.67,161.53Z" transform="translate(-213.53 -11.78)"/></g></svg>